<svg width="312" height="81" viewBox="0 0 312 81" fill="none" xmlns="http://www.w3.org/2000/svg">
<g clip-path="url(#clip0_327_21951)">
<path d="M270.992 31.2978L263.898 25.4593C264.272 25.239 264.977 24.6662 265.727 24.0052C268.855 21.1411 272.931 17.7702 275.355 15.9416L277.756 14.157H283.969C287.34 14.157 290.248 14.2892 290.38 14.4214C290.601 14.6197 287.142 17.9024 283.022 21.2733C280.84 23.0799 274.672 28.3675 273.217 29.6674C272.38 30.4385 271.543 31.0554 271.367 31.0554C271.146 31.0554 271.014 31.1435 270.992 31.2978Z" fill="#F9F506"/>
<path d="M51.8854 22.4186H1.32227V14.1787H14.938C34.4141 14.1787 39.9662 14.7736 45.7165 17.4394C48.7128 18.8054 50.6957 20.3256 51.8854 22.4186Z" fill="#F9F506"/>
<path d="M53.9779 52.4482C53.9779 52.9108 52.9644 53.043 48.4479 53.043C45.2092 53.043 42.8077 52.8888 42.6315 52.6244C42.4993 52.4261 40.7147 50.8398 38.6437 49.1434C36.6388 47.469 34.5017 45.6183 33.8848 45.0234C32.2104 43.327 28.2226 42.4898 21.9435 42.4898C17.1847 42.4898 13.3731 42.666 13.3731 42.8202C13.4613 43.0185 15.6865 45.1336 18.3524 47.5571C21.0182 49.9586 23.1112 52.1177 23.0231 52.3821C22.935 52.6685 20.9521 52.8888 17.7134 52.9769C13.1749 53.0651 12.4919 52.9769 11.5445 52.2499C10.9937 51.8313 8.34988 49.2976 5.68403 46.7199C2.46738 43.5693 0.947178 41.7627 1.05734 41.3441C1.18953 41.0136 1.32172 39.3172 1.32172 37.6427V34.5583L8.0855 34.2939C11.7648 34.1617 19.6302 33.9194 25.5788 33.8312C36.9252 33.5669 37.8726 33.4126 39.6792 31.4738C40.0758 31.0112 40.3402 30.2621 40.4062 29.4028H53.4491C53.5372 35.2413 50.9154 37.841 42.6094 40.595C41.8383 40.8594 41.9264 41.0357 43.4687 42.3796C50.3206 48.4604 53.9558 51.9855 53.9558 52.4702L53.9779 52.4482Z" fill="#F9F506"/>
<path d="M109.675 44.5828L109.543 48.7248L109.41 52.8227L85.66 52.9108C72.6171 52.9549 61.6232 52.8888 61.3809 52.7566C60.9623 52.6244 60.8301 49.8484 60.8301 40.9696V29.4028H104.96L104.828 33.3245L104.696 37.2021L88.1937 37.4224L71.7138 37.6207V44.3625L90.6612 44.4947L109.631 44.5828H109.675Z" fill="#F9F506"/>
<path d="M211.682 52.9995C221.266 52.2283 228.074 48.5711 231.07 42.5123L232.436 39.7363V14.3996L226.355 14.2674L220.275 14.1353L220.142 26.2968C220.01 36.9382 219.944 38.6347 219.239 39.8244C217.741 42.5784 212.211 44.5833 206.351 44.5833H203.112V53.4401L205.337 53.396C206.593 53.352 209.457 53.1978 211.682 52.9774V52.9995Z" fill="#F9F506"/>
<path d="M197.029 52.7351C195.839 50.3777 194.803 47.7118 193.856 44.4952C192.732 40.6836 192.71 40.1549 192.534 27.3544L192.336 14.1353L186.519 14.2674L180.659 14.3996L180.527 25.8121C180.395 37.6873 180.703 40.926 182.157 43.8122C183.942 47.183 188.502 50.62 193.724 52.3826C195.773 53.1096 197.315 53.2638 197.073 52.7571L197.029 52.7351Z" fill="#F9F506"/>
<path d="M154.953 52.7307H139.156L143.651 46.2754H150.459L154.953 52.7307Z" fill="#F9F506"/>
<path d="M174.34 45.9246C173.657 44.9552 172.93 43.9418 172.225 42.9063C168.501 37.5305 164.734 32.0225 164.183 31.1413C163.985 30.7006 162.222 28.211 160.327 25.5672C158.411 22.9013 156.141 19.5305 155.238 18.0984C152.704 14.0445 152.881 14.1327 147.02 14.2428L141.931 14.375L139.023 18.6051C137.436 20.9405 134.726 24.9503 132.986 27.484C131.245 30.0617 128.029 34.6884 125.825 37.8389C124.504 39.7337 123.314 41.4301 122.278 42.9283C118.246 48.7888 116.462 51.6529 116.462 52.1156C116.462 52.3139 116.55 52.4681 116.792 52.5122C116.991 52.5783 117.299 52.5783 117.762 52.5122H123.005C123.336 52.5122 123.644 52.5562 123.975 52.5783C124.041 52.5783 124.129 52.5783 124.195 52.5783H127.213L132.898 44.5587L133.096 44.2722L133.184 44.14L133.316 43.9638L134.087 42.9063H134.065C134.153 42.7741 134.264 42.6419 134.374 42.5097L134.418 42.4436C134.55 42.2673 134.682 42.0911 134.836 41.9148C135.85 40.5489 138.626 36.6272 141.16 32.8818C141.358 32.5733 141.578 32.2869 141.777 31.9785L142.922 30.26L146.646 24.73L147.769 25.9197C148.408 26.5586 148.871 27.1535 148.849 27.2857C148.849 27.3958 150.215 29.5329 152.33 32.6835C152.484 32.8818 152.616 33.1021 152.748 33.3004C154.092 35.2832 155.657 37.6406 157.353 40.1523C158.014 41.1437 158.653 42.0691 159.248 42.9283C159.512 43.3028 159.777 43.6994 159.997 44.0519C160.041 44.118 160.085 44.1621 160.107 44.2282C163.654 49.4938 165.218 51.741 166.871 52.6003L166.695 52.3359C166.695 52.3359 166.805 52.424 166.871 52.4461L166.959 52.6003H174.868C177.204 52.402 178.107 52.2257 178.151 51.8953C178.151 51.8953 178.151 51.8953 178.151 51.8732C178.151 51.5428 176.433 48.921 174.384 45.9467L174.34 45.9246Z" fill="#F9F506"/>
<path d="M108.376 14.1787L108.244 18.2766L108.112 22.4186L84.6698 22.5508C71.4947 22.5949 65.3699 22.5729 62.7481 22.4186C61.5143 22.3305 61.0516 22.2203 60.9855 22.0882C60.8533 21.7577 60.8093 19.907 60.8974 17.9462L61.0296 14.399L84.6918 14.2889L108.376 14.2007V14.1787Z" fill="#F9F506"/>
<path d="M108.11 22.4182L84.6678 22.5504C71.4927 22.5945 65.3679 22.5724 62.7461 22.4182H108.11Z" fill="#F9F506"/>
<path d="M154.947 52.7349H139.15L143.645 46.2795H150.453L154.947 52.7349Z" fill="#F9F506"/>
<path d="M174.34 45.9246C173.657 44.9552 172.93 43.9418 172.225 42.9063C168.501 37.5305 164.734 32.0225 164.183 31.1413C163.985 30.7006 162.222 28.211 160.327 25.5672C158.411 22.9013 156.141 19.5305 155.238 18.0984C152.704 14.0445 152.881 14.1327 147.02 14.2428L141.931 14.375L139.023 18.6051C137.436 20.9405 134.726 24.9503 132.986 27.484C131.245 30.0617 128.029 34.6884 125.825 37.8389C124.504 39.7337 123.314 41.4301 122.278 42.9283C118.246 48.7888 116.462 51.6529 116.462 52.1156C116.462 52.3139 116.55 52.4681 116.792 52.5122C116.991 52.5783 117.299 52.5783 117.762 52.5122H123.005C123.336 52.5122 123.644 52.5562 123.975 52.5783C124.041 52.5783 124.129 52.5783 124.195 52.5783H127.213L132.898 44.5587L133.096 44.2722L133.184 44.14L133.316 43.9638L134.087 42.9063H134.065C134.153 42.7741 134.264 42.6419 134.374 42.5097L134.418 42.4436C134.55 42.2673 134.682 42.0911 134.836 41.9148C135.85 40.5489 138.626 36.6272 141.16 32.8818C141.358 32.5733 141.578 32.2869 141.777 31.9785L142.922 30.26L146.646 24.73L147.769 25.9197C148.408 26.5586 148.871 27.1535 148.849 27.2857C148.849 27.3958 150.215 29.5329 152.33 32.6835C152.484 32.8818 152.616 33.1021 152.748 33.3004C154.092 35.2832 155.657 37.6406 157.353 40.1523C158.014 41.1437 158.653 42.0691 159.248 42.9283C159.512 43.3028 159.777 43.6994 159.997 44.0519C160.041 44.118 160.085 44.1621 160.107 44.2282C163.654 49.4938 165.218 51.741 166.871 52.6003L166.695 52.3359C166.695 52.3359 166.805 52.424 166.871 52.4461L166.959 52.6003H174.868C177.204 52.402 178.107 52.2257 178.151 51.8953C178.151 51.8953 178.151 51.8953 178.151 51.8732C178.151 51.5428 176.433 48.921 174.384 45.9467L174.34 45.9246Z" fill="#F9F506"/>
<path d="M263.832 25.4355H263.876C263.876 25.4355 263.744 25.5457 263.7 25.5677L263.832 25.4355Z" fill="#F9F506"/>
<path d="M271.06 31.3612L270.994 31.4273C270.994 31.4273 270.994 31.3392 270.994 31.3171L271.06 31.3612Z" fill="#F9F506"/>
<path d="M261.033 23.344C259.755 22.1542 257.046 19.5765 255.085 17.6597L251.405 14.1787H245.457C242.152 14.1787 239.376 14.2668 239.288 14.377C239.068 14.5973 250.282 25.7895 257.046 32.2228L263.699 25.5692C263.699 25.5692 263.677 25.5692 263.655 25.5692C263.479 25.5692 262.289 24.5557 261.033 23.3219V23.344Z" fill="#F9F506"/>
<path d="M291.681 51.7651C290.535 50.7516 286.547 46.9401 282.736 43.371C278.924 39.7357 274.738 35.7479 273.416 34.4921C271.896 33.0821 271.015 31.9585 270.993 31.4297L264.031 38.3697C265 39.1849 265.925 40.0001 266.52 40.5729C270.64 44.3844 271.213 44.9132 273.372 46.6978C275.289 48.3061 277.779 50.3991 281.502 53.5717C282.758 54.6292 283 54.6733 288.266 54.7174C294.611 54.7174 294.831 54.5411 291.681 51.7651Z" fill="#F9F506"/>
<path d="M236.401 51.3896C233.184 53.7911 232.876 54.1216 233.162 54.408C233.669 54.9147 246.954 54.7385 247.263 54.2538C247.263 54.2317 247.351 54.1656 247.417 54.0995L247.571 53.9674L256.538 45.4631L257.882 44.2072L250.832 37.8621L236.401 51.3896Z" fill="#F9F506"/>
<path d="M5.10653 73.9911L11.5881 74.0088L11.5881 76.2164L5.31846 76.2164C4.70032 76.2164 4.11751 76.0751 3.58768 75.8102C2.81059 75.4216 2.17479 74.7858 1.80391 74.0088C1.539 73.4789 1.39771 72.8961 1.39771 72.278L1.39771 63.8537L3.60534 63.8537L3.60534 72.4899C3.7113 73.267 4.32944 73.8851 5.10653 73.9911ZM104.675 73.9911L105.805 76.1987L103.333 76.1987L102.203 73.9911L99.5005 68.6928L96.7983 73.9911L95.668 76.1987L93.1955 76.1987L94.3258 73.9911L99.5005 63.836L104.675 73.9911ZM198.002 68.9754C199.062 69.6818 199.768 70.8828 199.768 72.2603C199.768 74.4326 198.002 76.1987 195.83 76.1987L187.406 76.1987L187.406 63.836L195.194 63.836C197.031 63.836 198.532 65.3372 198.532 67.174C198.532 67.8451 198.338 68.4632 198.002 68.9754ZM189.613 66.0436L189.613 68.3043L195.212 68.3043C195.83 68.3043 196.342 67.7921 196.342 67.174C196.342 66.5558 195.83 66.0436 195.212 66.0436L189.613 66.0436ZM195.83 73.9911L195.83 73.9735C196.784 73.9735 197.561 73.1964 197.561 72.2427C197.561 71.289 196.784 70.5119 195.83 70.5119L189.613 70.5119L189.613 73.9911L195.83 73.9911ZM293.326 67.2446L291.118 67.2623L291.118 67.1916C291.118 66.5735 290.606 66.0613 289.988 66.0613L284.972 66.0613C284.354 66.0613 283.842 66.5735 283.842 67.1916L283.842 67.2623C283.842 67.8804 284.354 68.3926 284.972 68.3926L289.423 68.3926C290.571 68.3926 291.595 68.8871 292.301 69.6642C292.354 69.7171 292.39 69.7701 292.443 69.8231C292.99 70.4942 293.326 71.3596 293.326 72.2957C293.326 74.4503 291.577 76.1987 289.423 76.1987L285.555 76.1987C283.4 76.1987 281.652 74.4503 281.652 72.2957L283.859 72.2957C283.859 73.2317 284.619 73.9911 285.555 73.9911L289.423 73.9911C290.359 73.9911 291.136 73.2317 291.136 72.2957C291.136 71.3596 290.359 70.6002 289.423 70.6002L284.972 70.6002C284.071 70.6002 283.259 70.247 282.658 69.6642C282.5 69.5052 282.358 69.3286 282.235 69.1343C281.864 68.6045 281.652 67.951 281.652 67.2446L281.652 67.174C281.652 65.3372 283.135 63.836 284.972 63.836L289.988 63.836C291.825 63.836 293.326 65.3372 293.326 67.174L293.326 67.2446Z" fill="#F9F506"/>
<path d="M299.145 2.41467V1.74248H303.839V2.41467H301.871V8H301.113V2.41467H299.145ZM305.008 1.74248H305.912L308.039 6.93671H308.112L310.239 1.74248H311.143V8H310.434V3.24575H310.373L308.418 8H307.733L305.778 3.24575H305.717V8H305.008V1.74248Z" fill="#F9F506"/>
</g>
<defs>
<clipPath id="clip0_327_21951">
<rect width="311.746" height="80.8676" fill="white"/>
</clipPath>
</defs>
</svg>
